<?xml version="1.0" encoding="utf-8"?>
<!-- Generator: Adobe Illustrator 16.0.4, SVG Export Plug-In . SVG Version: 6.00 Build 0)  -->
<!DOCTYPE svg PUBLIC "-//W3C//DTD SVG 1.1//EN" "http://www.w3.org/Graphics/SVG/1.1/DTD/svg11.dtd">
<svg version="1.1" id="Layer_1" xmlns="http://www.w3.org/2000/svg" xmlns:xlink="http://www.w3.org/1999/xlink" x="0px" y="0px"
	 width="262.937px" height="262.937px" viewBox="0 0 262.937 262.937" enable-background="new 0 0 262.937 262.937"
	 xml:space="preserve">
<rect fill="#F37121" stroke="#F37121" stroke-width="15" stroke-miterlimit="10" width="262.937" height="262.937"/>
<g>
	<path fill="#FFFFFF" d="M89.974,144.777c-1.334-4.411-3.944-8-7.88-10.768c-3.919-2.764-8.47-4.153-13.621-4.153
		c-5.629,0-10.558,1.547-14.784,4.654c-2.653,1.942-5.117,5.377-7.392,10.258L89.974,144.777z M110.113,160.459H45.354
		c0.942,5.784,3.423,10.369,7.479,13.792c4.055,3.406,9.223,5.117,15.511,5.117c7.538,0,14.007-2.653,19.396-8l16.958,8.017
		c-4.226,6.041-9.292,10.507-15.178,13.399c-5.921,2.908-12.911,4.354-21.022,4.354c-12.568,0-22.834-3.978-30.749-11.918
		c-7.897-7.949-11.851-17.916-11.851-29.895c0-12.247,3.944-22.428,11.825-30.518c7.905-8.09,17.804-12.158,29.723-12.158
		c12.645,0,22.929,4.039,30.851,12.085c7.94,8.06,11.876,18.69,11.876,31.925L110.113,160.459z"/>
	<path fill="#FFFFFF" d="M123.042,59.073h20.208v63.805c3.911-3.409,7.863-5.959,11.842-7.67c3.97-1.703,8.017-2.559,12.063-2.559
		c7.965,0,14.665,2.768,20.123,8.273c4.654,4.792,6.998,11.786,6.998,21.039v53.08h-19.832v-35.172c0-9.3-0.461-15.58-1.352-18.882
		c-0.872-3.294-2.378-5.746-4.517-7.372c-2.123-1.629-4.767-2.429-7.906-2.442c-4.064,0-7.563,1.352-10.489,4.068
		c-2.909,2.69-4.92,6.391-6.049,11.05c-0.59,2.421-0.882,7.905-0.882,16.529v32.221h-20.208V59.073z"/>
	<polygon fill="#FFFFFF" points="237.039,179.582 229.03,187.359 230.861,198.336 221.021,193.117 211.114,198.275 213.065,187.29 
		205.1,179.479 216.137,177.896 221.108,167.92 226.002,177.948 	"/>
</g>
</svg>
