<?xml version="1.0" encoding="utf-8"?>
<!-- Generator: Adobe Illustrator 16.0.4, SVG Export Plug-In . SVG Version: 6.00 Build 0)  -->
<!DOCTYPE svg PUBLIC "-//W3C//DTD SVG 1.1//EN" "http://www.w3.org/Graphics/SVG/1.1/DTD/svg11.dtd">
<svg version="1.1" id="Layer_1" xmlns:sketch="http://www.bohemiancoding.com/sketch/ns"
	 xmlns="http://www.w3.org/2000/svg" xmlns:xlink="http://www.w3.org/1999/xlink" x="0px" y="0px" width="25px" height="25px"
	 viewBox="0 0 25 25" enable-background="new 0 0 25 25" xml:space="preserve">
<title></title>
<desc></desc>
<g id="TabBar-Icons">
	<g id="Hamburger-Round">
		<path id="Hamburger" fill="#827F7F" d="M0,4c0-1.104,0.89-2,2.003-2h20.993C24.104,2,25,2.888,25,4c0,1.104-0.89,2-2.004,2H2.003
			C0.897,6,0,5.112,0,4L0,4z M0,12c0-1.104,0.89-2,2.003-2h20.993C24.104,10,25,10.888,25,12c0,1.104-0.89,2-2.004,2H2.003
			C0.897,14,0,13.112,0,12L0,12z M0,20c0-1.104,0.89-2,2.003-2h20.993C24.104,18,25,18.888,25,20c0,1.104-0.89,2-2.004,2H2.003
			C0.897,22,0,21.112,0,20L0,20z"/>
	</g>
</g>
</svg>
